<?xml version="1.0" encoding="UTF-8"?>
<svg id="Capa_2" data-name="Capa 2" xmlns="http://www.w3.org/2000/svg" viewBox="0 0 883.29 582.57">
  <defs>
    <style>
      .cls-1 {
        fill: #fff;
      }

      .cls-2 {
        fill: #fffdfd;
      }
    </style>
  </defs>
  <g id="LOGO">
    <g>
      <g>
        <path class="cls-2" d="M673.93,373.37s0,24.22-6.74,35.11c-21.33,34.48-42.05,45.39-69.84,53.14-83.97,23.44-240.32-45.88-240.32-45.88,.26-1.21,219.94,10.42,316.89-42.37Z"/>
        <path class="cls-2" d="M806.2,209.03c-5.41-30.41-22.25-59.03-46.84-77.77-30.41-23.18-56.87-36.49-98.9-48.86-37.14-10.93-104.13-22.9-118.3-24.75,0,0,59.18,13.14,93.36,24.66,33.86,11.41,80.23,31.83,101.74,58.54,21.26,30.42,26.4,50.23,4.27,74.67-24.87,27.46-56.49,45.49-90.59,59.34-3.3,1.34-8.55,1.99-8.55,1.99l-29.79-83.4-199.23,1.77,33.4,84.07,101.06-.83,7.08,23.92s-36.58,6.99-68.49,8.61c-39.09,1.71-127.65,.96-127.65,.96-4.8-3.84-8.69-7.85-11.18-10.83-21.69-26-39.74-54.66-49.11-87.4-9.92-34.62-15.33-71.21,11.09-99.87,25.79-27.98,67.21-31.16,99.91-23.74,52.34,11.89,100.22,41.42,100.22,41.42l32.45-73.88-10.5-6.37C470.82,15.95,405.5-2.96,335,.38c-49.04,2.32-94.88,17.67-125.89,57.09-9.68,11.23-21.27,38.28-22.46,53.65-5,58.6,7.94,118.07,32.74,168.04-.89,.25,1.76,3.79,1.06,4.04,0,0-6.84-1.92-7.81-2.28-33.37-12.35-65.8-26.47-91.66-52.01-31.24-30.85-29.85-77.01,4.11-104.82,14.51-11.89,25.47-18.01,41.22-28.34,2.7-1.77,15.13-8.97,21.17-12.45-10.12,5.19-37.47,16.5-44.18,19.6-35.37,16.33-57.24,29.32-81.56,60.9-25.23,32.74-28.69,75.24-5.1,106.61,12.47,16.58,28.92,31.18,46.1,42.99,43.55,29.94,93.76,45.17,144.49,57.01,56.21,13.12,113.76,18.64,171.45,19.79,79.58,1.58,158.37-3.98,234.25-31.44,41.94-15.18,82.55-33.23,115.58-63.45,24.55-22.46,44.07-50.37,37.68-86.28Z"/>
      </g>
      <g>
        <path class="cls-1" d="M17.78,577.33c-5.96-3.49-10.45-8.26-13.47-14.29-3.02-6.03-4.45-12.8-4.3-20.31,.15-6.77,1.84-13.13,5.08-19.09,3.24-5.96,7.89-10.76,13.96-14.4,6.07-3.64,13.23-5.46,21.47-5.46,6.84,0,12.8,1.51,17.88,4.53,5.08,3.02,9.07,6.83,11.98,11.42,2.91,4.6,4.73,9.25,5.46,13.96h-22.29c-.37-1.54-1.12-3.02-2.26-4.42-1.14-1.4-2.69-2.56-4.64-3.48-1.95-.92-4.21-1.38-6.79-1.38-3.24,0-6.11,.81-8.61,2.43-2.5,1.62-4.43,3.83-5.79,6.62-1.36,2.8-2.15,5.89-2.37,9.27-.07,3.68,.53,6.99,1.82,9.93,1.29,2.94,3.13,5.24,5.52,6.9,2.39,1.66,5.2,2.48,8.44,2.48,2.8,0,5.31-.57,7.56-1.71,2.24-1.14,4.08-2.76,5.52-4.86,1.44-2.1,2.37-4.54,2.81-7.34l22.41,.55c-.66,5.74-2.61,11.2-5.85,16.39-3.24,5.19-7.65,9.4-13.24,12.64-5.59,3.24-11.99,4.86-19.2,4.86-8.09,0-15.12-1.75-21.08-5.24Zm20.2-38.24h39.18v9.6l-8.39,4.08h-30.79v-13.69Z"/>
        <path class="cls-1" d="M84.44,503.77h23.84v57.06h35.98v19.65h-59.82v-76.71Z"/>
        <path class="cls-1" d="M169.54,503.77h32.12l23.84,76.71h-24.06l-4.64-14.79h-22.18l-3.97,14.79h-25.27l24.17-76.71Zm22.4,45.69l-7.06-21.96-6.29,21.96h13.35Z"/>
        <path class="cls-1" d="M244.15,578.55c-5.81-2.68-10.32-6.29-13.52-10.82-3.2-4.52-4.95-9.4-5.24-14.62h23.4c.44,2.87,1.82,5.26,4.14,7.17,2.32,1.91,5.35,3.05,9.11,3.42,3.9,.37,7.08-.02,9.55-1.16,2.46-1.14,3.84-2.7,4.14-4.69,.22-1.84-.68-3.29-2.7-4.36-2.02-1.07-5.46-1.86-10.32-2.37-11.11-1.25-19.48-3.92-25.11-8s-8.41-9.66-8.33-16.72c.15-4.78,1.77-8.87,4.86-12.25,3.09-3.38,7.15-5.96,12.2-7.73,5.04-1.77,10.43-2.65,16.17-2.65,6.92,0,13.15,1.14,18.71,3.42,5.55,2.28,10.06,5.54,13.52,9.77,3.46,4.23,5.55,9.22,6.29,14.96l-22.63-.22c-.52-2.65-2.26-4.8-5.24-6.46s-6.49-2.48-10.54-2.48c-1.91,0-3.64,.24-5.19,.72-1.55,.48-2.72,1.16-3.53,2.04-.81,.88-1.21,1.84-1.21,2.87,.07,1.47,.79,2.56,2.15,3.26,1.36,.7,3.77,1.31,7.23,1.82l1.66,.22c13.02,1.54,22.29,4.32,27.81,8.33,5.52,4.01,8.31,9.29,8.39,15.84,.15,4.86-1.23,9.14-4.14,12.86-2.91,3.72-7.08,6.62-12.53,8.72-5.45,2.1-11.81,3.15-19.09,3.15s-14.17-1.34-19.98-4.03Z"/>
        <path class="cls-1" d="M320.3,578.55c-5.81-2.68-10.32-6.29-13.52-10.82-3.2-4.52-4.95-9.4-5.24-14.62h23.4c.44,2.87,1.82,5.26,4.14,7.17,2.32,1.91,5.35,3.05,9.11,3.42,3.9,.37,7.08-.02,9.55-1.16,2.46-1.14,3.84-2.7,4.14-4.69,.22-1.84-.68-3.29-2.7-4.36-2.02-1.07-5.46-1.86-10.32-2.37-11.11-1.25-19.48-3.92-25.11-8s-8.41-9.66-8.33-16.72c.15-4.78,1.77-8.87,4.86-12.25,3.09-3.38,7.15-5.96,12.2-7.73,5.04-1.77,10.43-2.65,16.17-2.65,6.92,0,13.15,1.14,18.71,3.42,5.55,2.28,10.06,5.54,13.52,9.77,3.46,4.23,5.55,9.22,6.29,14.96l-22.63-.22c-.52-2.65-2.26-4.8-5.24-6.46s-6.49-2.48-10.54-2.48c-1.91,0-3.64,.24-5.19,.72-1.55,.48-2.72,1.16-3.53,2.04-.81,.88-1.21,1.84-1.21,2.87,.07,1.47,.79,2.56,2.15,3.26,1.36,.7,3.77,1.31,7.23,1.82l1.66,.22c13.02,1.54,22.29,4.32,27.81,8.33,5.52,4.01,8.31,9.29,8.39,15.84,.15,4.86-1.23,9.14-4.14,12.86-2.91,3.72-7.08,6.62-12.53,8.72-5.45,2.1-11.81,3.15-19.09,3.15s-14.17-1.34-19.98-4.03Z"/>
        <path class="cls-1" d="M444.57,531.8v48.67h-21.96v-76.71h31.46l14.46,38.74,14.68-38.74h31.68v76.71h-21.96v-48.01l-16.67,48.01h-16.67l-15.01-48.67Z"/>
        <path class="cls-1" d="M543.69,503.77h32.12l23.84,76.71h-24.06l-4.64-14.79h-22.18l-3.97,14.79h-25.27l24.17-76.71Zm22.41,45.69l-7.06-21.96-6.29,21.96h13.35Z"/>
        <path class="cls-1" d="M618.3,578.55c-5.81-2.68-10.32-6.29-13.52-10.82-3.2-4.52-4.95-9.4-5.24-14.62h23.4c.44,2.87,1.82,5.26,4.14,7.17,2.32,1.91,5.35,3.05,9.11,3.42,3.9,.37,7.08-.02,9.55-1.16,2.46-1.14,3.84-2.7,4.14-4.69,.22-1.84-.68-3.29-2.7-4.36-2.03-1.07-5.46-1.86-10.32-2.37-11.11-1.25-19.48-3.92-25.11-8s-8.41-9.66-8.33-16.72c.15-4.78,1.77-8.87,4.86-12.25,3.09-3.38,7.16-5.96,12.2-7.73,5.04-1.77,10.43-2.65,16.17-2.65,6.92,0,13.15,1.14,18.71,3.42,5.55,2.28,10.06,5.54,13.52,9.77,3.46,4.23,5.55,9.22,6.29,14.96l-22.63-.22c-.52-2.65-2.26-4.8-5.24-6.46-2.98-1.66-6.5-2.48-10.54-2.48-1.91,0-3.64,.24-5.19,.72-1.54,.48-2.72,1.16-3.53,2.04-.81,.88-1.21,1.84-1.21,2.87,.07,1.47,.79,2.56,2.15,3.26,1.36,.7,3.77,1.31,7.23,1.82l1.66,.22c13.02,1.54,22.29,4.32,27.81,8.33,5.52,4.01,8.31,9.29,8.39,15.84,.15,4.86-1.23,9.14-4.14,12.86-2.91,3.72-7.08,6.62-12.53,8.72-5.45,2.1-11.81,3.15-19.09,3.15s-14.17-1.34-19.98-4.03Z"/>
        <path class="cls-1" d="M698.31,521.65h-23.07v-17.88h69.86v17.88h-22.96v58.83h-23.84v-58.83Z"/>
        <path class="cls-1" d="M746.76,503.77h57.17l-.11,17.55h-33.44v12.14h28.92v17.66h-28.92v11.7h36.09v17.66h-59.82l.11-76.71Z"/>
        <path class="cls-1" d="M813.87,503.77h23.84v76.71h-23.84v-76.71Zm16.56,41.61l-.55-41.61h15.23c6.77-.07,12.64,1.12,17.6,3.59,4.97,2.47,8.75,5.79,11.37,9.99,2.61,4.19,3.95,8.79,4.03,13.8-.07,5.45-1.54,10.17-4.42,14.18-2.87,4.01-6.88,7.05-12.03,9.11l21.63,26.05h-27.26l-25.61-35.1Zm13.13-3.53c3.16-.07,5.78-.97,7.84-2.7,2.06-1.73,3.02-4.17,2.87-7.34-.15-2.94-1.2-5.19-3.15-6.73-1.95-1.55-4.51-2.32-7.67-2.32h-8.5l-.11,19.09h8.72Z"/>
      </g>
    </g>
  </g>
</svg>